<?xml version="1.0" encoding="utf-8"?>
<svg version="1.1" id="Calque_1" xmlns="http://www.w3.org/2000/svg" xmlns:xlink="http://www.w3.org/1999/xlink" x="0px" y="0px"
	 viewBox="0 0 50 50" style="enable-background:new 0 0 50 50;" xml:space="preserve">
<style type="text/css">
	.st0{fill:#AAAAAA;}
</style>
<path class="st0" d="M19.8,1L20,19c0,0.6-0.4,1-1,1H1c-0.6,0-1,0.4-1,1v8c0,0.6,0.4,1,1,1h18c0.6,0,1,0.4,1,1v18c0,0.6,0.4,1,1,1h8
	c0.6,0,1-0.4,1-1V31c0-0.6,0.4-1,1-1h18c0.6,0,1-0.4,1-1v-8c0-0.6-0.4-1-1-1H31c-0.6,0-1-0.4-1-1V1c0-0.6-0.4-1-1-1h-8.2
	C20.3,0,19.8,0.5,19.8,1z"/>
</svg>
