<?xml version="1.0" encoding="utf-8"?>
<svg version="1.1" id="Calque_1" xmlns="http://www.w3.org/2000/svg" xmlns:xlink="http://www.w3.org/1999/xlink" x="0px" y="0px"
	 viewBox="0 0 40 40" style="enable-background:new 0 0 40 40;" xml:space="preserve">
<style type="text/css">
	.st0{fill:#AAAAAA;}
</style>
<path class="st0" d="M14,20h-3c-0.6,0-1,0.4-1,1v13c0,0.6-0.4,1-1,1H6c-0.6,0-1-0.4-1-1V1c0-0.6-0.4-1-1-1H1C0.4,0,0,0.4,0,1v38
	c0,0.6,0.4,1,1,1h28c0.6,0,1-0.4,1-1v-3c0-0.6-0.4-1-1-1H16c-0.6,0-1-0.4-1-1V21C15,20.4,14.6,20,14,20z"/>
<path class="st0" d="M10,1v3c0,0.6,0.4,1,1,1h23c0.6,0,1,0.4,1,1v14v0h-4c-0.6,0-1,0.4-1,1v4l0,0l-9,0c-0.6,0-1,0.4-1,1v3
	c0,0.6,0.4,1,1,1l13,0c0.6,0,1,0.4,1,1v8c0,0.6,0.4,1,1,1h3c0.6,0,1-0.4,1-1V1c0-0.6-0.4-1-1-1H11C10.5,0,10,0.4,10,1z"/>
<path class="st0" d="M21,20h3c0.6,0,1-0.4,1-1v-3c0-0.6,0.4-1,1-1h3c0.6,0,1-0.4,1-1v-3c0-0.6-0.4-1-1-1h-4H11c-0.6,0-1,0.4-1,1v3
	c0,0.6,0.4,1,1,1h8c0.6,0,1,0.4,1,1v3C20,19.6,20.4,20,21,20z"/>
</svg>
