<?xml version="1.0" encoding="utf-8"?>
<svg version="1.1" id="Calque_1" xmlns="http://www.w3.org/2000/svg" xmlns:xlink="http://www.w3.org/1999/xlink" x="0px" y="0px"
	 viewBox="0 0 283.5 283.5" style="enable-background:new 0 0 283.5 283.5;" xml:space="preserve">
<style type="text/css">
	.st0{fill:#AAAAAA;}
</style>
<g>
	<polygon class="st0" points="106.3,141.7 70.9,141.7 70.9,248 35.4,248 35.4,0 0,0 0,283.5 212.6,283.5 212.6,248 106.3,248 	"/>
	<polygon class="st0" points="248,0 212.6,0 70.9,0 70.9,35.4 212.6,35.4 248,35.4 248,141.7 212.6,141.7 212.6,177.2 141.7,177.2 
		141.7,212.6 248,212.6 248,283.5 283.5,283.5 283.5,0 	"/>
	<polygon class="st0" points="141.7,141.7 177.2,141.7 177.2,106.3 212.6,106.3 212.6,70.9 70.9,70.9 70.9,106.3 141.7,106.3 	"/>
</g>
</svg>
